<svg width="628" height="604" viewBox="0 0 628 604" fill="none" xmlns="http://www.w3.org/2000/svg">
<path d="M588.914 225.41C590.514 216.234 593.085 207.142 594.923 197.796C598.43 179.902 598.311 161.175 595.689 143.145C590.548 107.954 575.738 74.5003 555.413 47.2262C532.994 17.1259 499.271 -7.20285 462.995 1.95662C425.272 11.4906 393.337 40.5864 356.653 53.866C294.519 76.339 231.619 35.3768 168.991 36.7388C114.943 37.9135 58.2059 57.322 22.5938 105.316C8.02214 124.945 -2.0895 151.385 1.34914 177.263C5.55381 208.879 28.7391 232.935 46.0515 256.328C72.5732 292.182 82.5998 331.153 60.2997 373.068C45.2173 401.432 24.926 426.493 26.6793 461.718C29.4881 518.071 81.5103 552.104 124.408 567.29C167.97 582.715 217.473 584.383 260.796 566.949C299.285 551.457 326.147 517.526 361.13 495.955C392.622 476.529 428.524 469.073 464.136 473.346C501.212 477.789 540.279 485.57 576.113 469.6C610.397 454.312 626.637 413.333 627.914 374.09C628.544 354.511 625.735 334.677 619.232 316.46C611.282 294.225 593.68 276.894 588.744 253.297C586.718 243.661 587.348 234.485 588.914 225.41Z" fill="#1B2F46"/>
<g clip-path="url(#clip0_126_260)">
<path d="M545.062 104.963H84.8401C79.7154 104.963 75.561 109.12 75.561 114.248V462.405C75.561 467.533 79.7154 471.689 84.8401 471.689H545.062C550.187 471.689 554.341 467.533 554.341 462.405V114.248C554.341 109.12 550.187 104.963 545.062 104.963Z" fill="#92A4B9"/>
<path d="M542.909 115.015H86.9929V452.563H542.909V115.015Z" fill="white"/>
<path opacity="0.6" d="M543.206 446.361H542.909V121.205V115.015H86.9929V121.205H536.723V446.361H87.2898V452.551H536.723H542.909H543.206V446.361Z" fill="#E0E0E0"/>
<path d="M202.364 133.164H198.244V424.487H202.364V133.164Z" fill="#E0E0E0"/>
<path d="M510.024 155.038H418.581V133.164H414.102V155.038H274.68V133.164H270.188V155.038H202.723V133.164H198.244V155.038H140.292V133.164H136.173V155.038H110.809V159.16H136.173V424.499H140.292V159.16H198.244V424.499H202.723V159.16H270.188V424.499H274.68V159.16H414.102V424.499H418.581V159.16H510.024V155.038Z" fill="#C2DBF6"/>
<path opacity="0.7" d="M367.174 185.305L361.978 222.803L403.833 223.31L400.295 175.402L367.174 185.305Z" fill="#CCCCCC"/>
<path d="M400.282 175.402H359.417V218.779H400.282V175.402Z" fill="#DE4E96"/>
<path d="M389.185 172.369H371.653V178.559H389.185V172.369Z" fill="#CCCCCC"/>
<path d="M193.703 141.78C193.703 143.401 192.392 144.726 190.759 144.726H147.481C145.86 144.726 144.548 143.414 144.548 141.78C144.548 140.158 145.86 138.833 147.481 138.833H190.771C192.392 138.833 193.716 140.145 193.716 141.78H193.703Z" fill="#C2DBF6"/>
<path d="M260.513 141.78C260.513 143.401 259.202 144.726 257.569 144.726H214.278C212.658 144.726 211.346 143.414 211.346 141.78C211.346 140.158 212.658 138.833 214.278 138.833H257.569C259.19 138.833 260.513 140.145 260.513 141.78Z" fill="#C2DBF6"/>
<path d="M489.4 141.78C489.4 143.401 488.088 144.726 486.455 144.726H443.165C441.544 144.726 440.232 143.414 440.232 141.78C440.232 140.158 441.544 138.833 443.165 138.833H486.455C488.076 138.833 489.4 140.145 489.4 141.78Z" fill="#C2DBF6"/>
<path d="M492.282 392.536C492.282 394.257 490.897 395.643 489.177 395.643H445.589C443.87 395.643 442.484 394.257 442.484 392.536C442.484 390.815 443.87 389.429 445.589 389.429H489.177C490.897 389.429 492.282 390.815 492.282 392.536Z" fill="#B1C909"/>
<path d="M492.282 404.915C492.282 406.636 490.897 408.022 489.177 408.022H445.589C443.87 408.022 442.484 406.636 442.484 404.915C442.484 403.194 443.87 401.808 445.589 401.808H489.177C490.897 401.808 492.282 403.194 492.282 404.915Z" fill="#B1C909"/>
<path d="M220.007 177.692L216.703 201.535L243.415 203.119V175.959L220.007 177.692Z" fill="#CCCCCC"/>
<path d="M245.419 172.369H219.425V199.963H245.419V172.369Z" fill="#959CE4"/>
<path opacity="0.7" d="M338.075 189.242H286.223V252.587H338.075V189.242Z" fill="#CCCCCC"/>
<path d="M231.859 204.308L235.831 228.064L261.8 221.589L253.684 195.667L231.859 204.308Z" fill="#CCCCCC"/>
<path d="M254.534 191.638L229.728 199.411L237.97 225.744L262.776 217.97L254.534 191.638Z" fill="#DE4E96"/>
<path opacity="0.2" d="M318.415 184.352C318.415 188.487 315.149 191.842 311.116 191.842C307.082 191.842 303.816 188.487 303.816 184.352C303.816 180.217 307.082 176.863 311.116 176.863C315.149 176.863 318.415 180.217 318.415 184.352Z" fill="#666666"/>
<path d="M288.92 279.698L283.724 317.195L325.727 319.683V276.987L288.92 279.698Z" fill="#CCCCCC"/>
<path opacity="0.7" d="M359.367 294.095L362.708 331.803L404.192 324.808L394.628 283.189L359.367 294.095Z" fill="#CCCCCC"/>
<path d="M396.442 276.959L356.618 286.129L366.341 328.401L406.165 319.231L396.442 276.959Z" fill="#FFBB2E"/>
<path d="M332.235 264.471L312.143 296.559L349.445 316.044L366.927 277.086L332.235 264.471Z" fill="#CCCCCC"/>
<path d="M328.882 271.342H288.017V314.719H328.882V271.342Z" fill="#959CE4"/>
<path d="M450.6 329.599L448.274 352.501L473.835 353.083L472.907 327.148L450.6 329.599Z" fill="#CCCCCC"/>
<path d="M474.716 323.62L449.889 324.522L450.845 350.873L475.672 349.971L474.716 323.62Z" fill="#959CE4"/>
<path opacity="0.7" d="M468.231 349.567L465.892 372.457L491.466 373.038L490.525 347.104L468.231 349.567Z" fill="#EADBEA"/>
<path d="M492.329 343.566L467.502 344.469L468.458 370.819L493.285 369.917L492.329 343.566Z" fill="#45C678"/>
<path opacity="0.7" d="M230.498 274.325L216.58 300.817L247.547 312.429L257.767 275.86L230.498 274.325Z" fill="#CCCCCC"/>
<path d="M227.396 264.888L215.758 297.127L246.14 308.108L257.779 275.868L227.396 264.888Z" fill="#B1C909"/>
<path d="M237.304 265.922L235.643 270.521L248.676 275.231L250.337 270.632L237.304 265.922Z" fill="#666666"/>
<path opacity="0.7" d="M347.342 408.332L313.12 426.653L294.079 383.511L328.647 367.616L347.342 408.332Z" fill="#CCCCCC"/>
<path d="M329.818 364.651L295.246 380.54L314.869 423.288L349.441 407.399L329.818 364.651Z" fill="#B1C909"/>
<path d="M301.682 372.873L293.527 389.097L298.612 391.656L306.767 375.431L301.682 372.873Z" fill="#FFDA8E"/>
<path d="M346.518 397.175L339.113 411.906L344.198 414.464L351.603 399.733L346.518 397.175Z" fill="#FFDA8E"/>
<path opacity="0.7" d="M361.99 265.115C361.99 269.25 358.724 272.605 354.691 272.605C350.657 272.605 347.391 269.25 347.391 265.115C347.391 260.98 350.657 257.626 354.691 257.626C358.724 257.626 361.99 260.98 361.99 265.115Z" fill="#CCCCCC"/>
<path opacity="0.7" d="M242.301 364.497L237.489 349.134L215.664 357.787L219.636 381.531L234.074 377.928L231.34 387.312L257.532 392.771L261.491 365.908L242.301 364.497Z" fill="#CCCCCC"/>
<path opacity="0.7" d="M221.046 386.247L214.303 409.359L240.495 414.831L244.454 387.955L221.046 386.247Z" fill="#CCCCCC"/>
<path d="M317.277 208.133C316.745 207.7 315.966 207.774 315.533 208.306L308.456 216.935L301.478 207.762C301.07 207.217 300.29 207.118 299.746 207.526C299.201 207.935 299.102 208.715 299.511 209.259L306.847 218.903L299.164 228.262C298.731 228.794 298.805 229.574 299.337 230.007C299.572 230.193 299.845 230.292 300.117 230.292C300.476 230.292 300.834 230.143 301.07 229.834L308.369 220.933L315.112 229.809C315.359 230.131 315.731 230.292 316.102 230.292C316.362 230.292 316.621 230.205 316.844 230.044C317.389 229.636 317.487 228.856 317.079 228.311L309.978 218.977L317.426 209.903C317.859 209.371 317.784 208.591 317.252 208.158L317.277 208.133Z" fill="#010202"/>
<path opacity="0.7" d="M167.103 301.647L156.673 323.36L181.628 333.016L189.917 307.155L167.103 301.647Z" fill="#CCCCCC"/>
<path d="M168.173 296.419L159.756 322.696L184.51 330.634L192.927 304.357L168.173 296.419Z" fill="#66C2F0"/>
<path opacity="0.7" d="M169.132 370.662C171.161 372.729 171.174 376.009 169.157 377.99C167.14 379.971 163.862 379.884 161.833 377.817C159.803 375.749 159.791 372.469 161.808 370.488C163.824 368.508 167.103 368.594 169.132 370.662Z" fill="#CCCCCC"/>
<path opacity="0.7" d="M466.313 238.193L439.204 290.254L481.305 312.202L508.414 260.141L466.313 238.193Z" fill="#CCCCCC"/>
<path opacity="0.7" d="M476.458 191L479.168 221.589L512.82 215.92L505.063 182.161L476.458 191Z" fill="#CCCCCC"/>
<path d="M506.537 177.09L474.224 184.531L482.113 218.829L514.426 211.388L506.537 177.09Z" fill="#FFBB2E"/>
<path opacity="0.7" d="M443.845 171.651L425.67 200.693L459.422 218.321L475.246 183.077L443.845 171.651Z" fill="#CCCCCC"/>
<path opacity="0.2" d="M499.52 343.811C499.52 347.562 496.563 350.594 492.913 350.594C489.263 350.594 486.307 347.562 486.307 343.811C486.307 340.06 489.263 337.027 492.913 337.027C496.563 337.027 499.52 340.06 499.52 343.811Z" fill="#666666"/>
<path d="M499.025 343.39C499.025 347.141 495.994 350.174 492.245 350.174C488.496 350.174 485.465 347.141 485.465 343.39C485.465 339.639 488.496 336.606 492.245 336.606C495.994 336.606 499.025 339.639 499.025 343.39Z" fill="#949494"/>
<path d="M498.605 343.39C498.605 347.141 495.573 350.174 491.825 350.174C488.076 350.174 485.045 347.141 485.045 343.39C485.045 339.639 488.076 336.606 491.825 336.606C495.573 336.606 498.605 339.639 498.605 343.39Z" fill="#CCCCCC"/>
<path d="M347.799 372.927C347.799 372.927 347.762 372.927 347.75 372.927C347.725 372.927 347.713 372.952 347.688 372.964C347.651 372.976 347.614 373.001 347.589 373.014C347.564 373.038 347.54 373.051 347.503 373.075C347.478 373.1 347.441 373.125 347.416 373.162C347.391 373.187 347.366 373.224 347.342 373.249C347.342 373.261 347.317 373.274 347.305 373.286C347.305 373.298 347.305 373.323 347.28 373.348C347.267 373.385 347.255 373.41 347.243 373.447C347.23 373.484 347.218 373.521 347.206 373.571C347.206 373.608 347.193 373.645 347.193 373.682C347.193 373.719 347.193 373.744 347.193 373.781C347.193 373.806 347.193 373.831 347.193 373.855C347.193 373.868 347.206 373.88 347.206 373.905C347.206 373.942 347.218 373.979 347.23 374.004C347.23 374.016 347.23 374.041 347.23 374.053L350.868 383.474C351.041 383.92 351.548 384.155 351.994 383.969C352.414 383.808 352.637 383.363 352.526 382.942C352.526 382.905 352.501 382.868 352.489 382.83L349.767 375.799L371.814 389.107C372.222 389.354 372.767 389.218 373.014 388.81C373.138 388.599 373.163 388.364 373.113 388.154C373.064 387.931 372.927 387.745 372.717 387.609L350.62 374.276L356.819 373.472C357.301 373.41 357.635 372.976 357.574 372.494C357.574 372.457 357.573 372.432 357.549 372.395C357.437 371.974 357.029 371.677 356.584 371.739L347.898 372.865C347.898 372.865 347.874 372.877 347.849 372.877C347.812 372.877 347.787 372.89 347.75 372.902L347.799 372.927Z" fill="#666666"/>
<path d="M185.439 194.082C185.439 194.082 185.476 194.082 185.488 194.082C185.513 194.082 185.525 194.058 185.55 194.045C185.587 194.033 185.624 194.02 185.649 193.996C185.674 193.971 185.711 193.959 185.736 193.934C185.773 193.909 185.798 193.884 185.822 193.86C185.847 193.835 185.872 193.798 185.896 193.773C185.896 193.76 185.921 193.748 185.934 193.736C185.934 193.723 185.934 193.699 185.958 193.674C185.971 193.649 185.983 193.612 186.008 193.575C186.02 193.538 186.033 193.501 186.045 193.451C186.045 193.414 186.057 193.377 186.07 193.34C186.07 193.302 186.07 193.265 186.07 193.241C186.07 193.216 186.07 193.191 186.07 193.166C186.07 193.154 186.07 193.142 186.057 193.117C186.057 193.08 186.045 193.042 186.033 193.018C186.033 193.005 186.033 192.981 186.033 192.968L182.667 183.449C182.506 182.99 182.012 182.755 181.554 182.916C181.133 183.065 180.898 183.498 180.985 183.931C180.985 183.968 180.997 184.006 181.009 184.043L183.521 191.148L161.87 177.209C161.461 176.949 160.917 177.061 160.657 177.469C160.521 177.667 160.496 177.915 160.533 178.125C160.583 178.348 160.707 178.546 160.917 178.67L182.618 192.646L176.395 193.265C175.912 193.315 175.566 193.748 175.615 194.219C175.615 194.256 175.615 194.28 175.628 194.318C175.727 194.751 176.122 195.048 176.568 194.998L185.29 194.132C185.29 194.132 185.315 194.132 185.34 194.119C185.377 194.119 185.414 194.107 185.439 194.095V194.082Z" fill="#666666"/>
<g opacity="0.7">
<path d="M333.349 332.88C333.349 334.601 331.963 335.987 330.243 335.987H286.656C284.936 335.987 283.55 334.601 283.55 332.88C283.55 331.159 284.936 329.773 286.656 329.773H330.243C331.963 329.773 333.349 331.159 333.349 332.88Z" fill="#CCCCCC"/>
<path d="M333.349 345.259C333.349 346.98 331.963 348.366 330.243 348.366H286.656C284.936 348.366 283.55 346.98 283.55 345.259C283.55 343.538 284.936 342.152 286.656 342.152H330.243C331.963 342.152 333.349 343.538 333.349 345.259Z" fill="#CCCCCC"/>
<path d="M189.893 213.196C189.893 214.632 188.73 215.783 187.307 215.783H150.933C149.497 215.783 148.347 214.62 148.347 213.196C148.347 211.76 149.51 210.609 150.933 210.609H187.307C188.742 210.609 189.893 211.773 189.893 213.196Z" fill="#CCCCCC"/>
<path d="M189.893 223.521C189.893 224.957 188.73 226.108 187.307 226.108H150.933C149.497 226.108 148.347 224.944 148.347 223.521C148.347 222.085 149.51 220.933 150.933 220.933H187.307C188.742 220.933 189.893 222.097 189.893 223.521Z" fill="#CCCCCC"/>
<path d="M406.283 235.244C406.283 236.965 404.897 238.351 403.178 238.351H359.59C357.87 238.351 356.485 236.965 356.485 235.244C356.485 233.523 357.87 232.137 359.59 232.137H403.178C404.897 232.137 406.283 233.523 406.283 235.244Z" fill="#CCCCCC"/>
<path d="M406.283 247.623C406.283 249.344 404.897 250.73 403.178 250.73H359.59C357.87 250.73 356.485 249.344 356.485 247.623C356.485 245.902 357.87 244.516 359.59 244.516H403.178C404.897 244.516 406.283 245.902 406.283 247.623Z" fill="#CCCCCC"/>
<path d="M256.418 324.833C256.418 326.269 255.255 327.42 253.832 327.42H217.458C216.023 327.42 214.872 326.257 214.872 324.833C214.872 323.397 216.035 322.246 217.458 322.246H253.832C255.268 322.246 256.418 323.41 256.418 324.833Z" fill="#CCCCCC"/>
<path d="M256.418 335.157C256.418 336.593 255.255 337.745 253.832 337.745H217.458C216.023 337.745 214.872 336.581 214.872 335.157C214.872 333.721 216.035 332.57 217.458 332.57H253.832C255.268 332.57 256.418 333.734 256.418 335.157Z" fill="#CCCCCC"/>
<path d="M256.418 240.146C256.418 241.582 255.255 242.733 253.832 242.733H217.458C216.023 242.733 214.872 241.57 214.872 240.146C214.872 238.71 216.035 237.559 217.458 237.559H253.832C255.268 237.559 256.418 238.722 256.418 240.146Z" fill="#CCCCCC"/>
<path d="M256.418 250.47C256.418 251.906 255.255 253.058 253.832 253.058H217.458C216.023 253.058 214.872 251.894 214.872 250.47C214.872 249.034 216.035 247.883 217.458 247.883H253.832C255.268 247.883 256.418 249.047 256.418 250.47Z" fill="#CCCCCC"/>
<path d="M189.893 346.287C189.893 347.723 188.73 348.874 187.307 348.874H150.933C149.497 348.874 148.347 347.71 148.347 346.287C148.347 344.851 149.51 343.699 150.933 343.699H187.307C188.742 343.699 189.893 344.863 189.893 346.287Z" fill="#CCCCCC"/>
<path d="M189.893 356.611C189.893 358.047 188.73 359.198 187.307 359.198H150.933C149.497 359.198 148.347 358.035 148.347 356.611C148.347 355.175 149.51 354.024 150.933 354.024H187.307C188.742 354.024 189.893 355.187 189.893 356.611Z" fill="#CCCCCC"/>
<g opacity="0.6">
<path d="M124.209 177.135C124.209 178.064 123.466 178.806 122.538 178.806H99.0806C98.1527 178.806 97.4103 178.064 97.4103 177.135C97.4103 176.207 98.1527 175.464 99.0806 175.464H122.551C123.479 175.464 124.221 176.207 124.221 177.135H124.209Z" fill="#CCCCCC"/>
<path d="M124.209 183.795C124.209 184.724 123.466 185.466 122.538 185.466H99.0806C98.1527 185.466 97.4103 184.724 97.4103 183.795C97.4103 182.867 98.1527 182.124 99.0806 182.124H122.551C123.479 182.124 124.221 182.867 124.221 183.795H124.209Z" fill="#CCCCCC"/>
</g>
</g>
<path opacity="0.7" d="M89.2818 204.84L87.1166 208.752L86.9929 227.816L87.0053 230.168L102 236.989L111.75 211.636L89.2818 204.84Z" fill="#CCCCCC"/>
<path d="M90.6553 199.654L80.7499 225.406L105.009 234.748L114.915 208.996L90.6553 199.654Z" fill="#45C678"/>
<path d="M500.201 433.734H442.831C438.339 433.734 434.702 437.374 434.702 441.867H508.317C508.317 437.374 504.679 433.734 500.188 433.734H500.201Z" fill="#323232"/>
<path d="M184.733 438.575C184.733 441.385 182.457 443.65 179.661 443.65H153.704C150.895 443.65 148.631 441.372 148.631 438.575C148.631 435.765 150.908 433.499 153.704 433.499H179.661C182.469 433.499 184.733 435.777 184.733 438.575Z" fill="#010202"/>
<path d="M230.041 445.408H227.306V446.374H230.041V445.408Z" fill="#323232"/>
<path d="M204.554 436.322H146.85C141.307 436.322 136.816 440.815 136.816 446.361H227.752C227.752 440.815 210.097 436.322 204.554 436.322Z" fill="#E470AA"/>
<mask id="mask0_126_260" style="mask-type:luminance" maskUnits="userSpaceOnUse" x="136" y="436" width="92" height="11">
<path d="M204.554 436.322H146.85C141.307 436.322 136.816 440.815 136.816 446.361H227.752C227.752 440.815 210.097 436.322 204.554 436.322Z" fill="white"/>
</mask>
<g mask="url(#mask0_126_260)">
<path d="M147.629 431.345H121.858V454.247H147.629V431.345Z" fill="#323232"/>
<path d="M176.296 430.305H175.058V450.521H176.296V430.305Z" fill="#E994BD"/>
<path d="M178.77 430.305H177.533V450.521H178.77V430.305Z" fill="#E994BD"/>
<path opacity="0.2" d="M229.088 434.019H210.53V450.323H229.088V434.019Z" fill="white"/>
</g>
<path d="M506.943 436.495H436.075C430.533 436.495 426.041 440.989 426.041 446.535H516.977C516.977 440.989 512.486 436.495 506.943 436.495Z" fill="#FFC856"/>
<path d="M404.192 142.819C404.192 145.011 402.41 146.793 400.221 146.793H287.683C285.493 146.793 283.711 145.011 283.711 142.819C283.711 140.628 285.493 138.846 287.683 138.846H400.221C402.41 138.846 404.192 140.628 404.192 142.819Z" fill="#C2DBF6"/>
<path opacity="0.7" d="M151.316 379.649L159.593 410.833L187.789 402.291L177.459 374.227L151.316 379.649Z" fill="#CCCCCC"/>
<path d="M178.204 369.743L151.339 379.643L161.832 408.15L188.697 398.249L178.204 369.743Z" fill="#DE4E96"/>
<path d="M168.625 370.699C170.654 372.766 170.617 376.096 168.551 378.126C166.484 380.156 163.156 380.119 161.127 378.052C159.098 375.985 159.135 372.655 161.202 370.624C163.268 368.594 166.596 368.631 168.625 370.699Z" fill="#BF8C23"/>
<path d="M168.39 370.921C170.419 372.989 170.382 376.319 168.316 378.349C166.249 380.379 162.921 380.342 160.892 378.275C158.863 376.207 158.9 372.877 160.966 370.847C163.033 368.817 166.361 368.854 168.39 370.921Z" fill="#FFBB2E"/>
<path d="M238.338 345.112L213.532 352.886L221.775 379.218L246.581 371.445L238.338 345.112Z" fill="#66C2F0"/>
<path d="M238.281 358.832L234.253 386.13L259.968 389.929L263.997 362.632L238.281 358.832Z" fill="#FFBB2E"/>
<path d="M221.242 380.872L217.213 408.17L242.928 411.969L246.957 384.672L221.242 380.872Z" fill="#45C678"/>
<path d="M334.855 256.512L317.091 296.08L354.368 312.835L372.132 273.267L334.855 256.512Z" fill="#E16070"/>
<path d="M353.948 272.134C358.082 272.134 361.434 268.781 361.434 264.645C361.434 260.508 358.082 257.155 353.948 257.155C349.814 257.155 346.463 260.508 346.463 264.645C346.463 268.781 349.814 272.134 353.948 272.134Z" fill="#949494"/>
<path d="M360.976 264.645C360.976 268.779 357.623 272.134 353.491 272.134C349.358 272.134 346.005 268.779 346.005 264.645C346.005 260.51 349.358 257.155 353.491 257.155C357.623 257.155 360.976 260.51 360.976 264.645Z" fill="#CCCCCC"/>
<path opacity="0.7" d="M193.654 244.083H157.911V287.757H193.654V244.083Z" fill="#CCCCCC"/>
<path opacity="0.2" d="M407.508 351.981L402.262 345.049L398.068 329.513C398.068 329.513 393.391 313.877 391.139 308.938C390.793 308.183 390.422 307.477 390.026 306.796C390.88 307.019 391.708 307.193 392.513 307.304C395.012 307.675 397.338 311.364 401.495 312.998C406.357 314.917 409.364 314.137 411.702 315.227C413.917 316.267 414.597 318.569 417.059 322.679C420.202 327.928 423.505 329.03 425.175 331.53C425.831 332.521 426.289 336.16 426.289 336.16C426.215 337.398 426.45 338.933 426.598 339.787C426.895 341.409 427.91 346.274 427.91 346.274L412.333 355.113L407.508 351.969V351.981ZM538.728 604L493.482 477.953L485.416 479.241L485.49 477.953L482.088 478.312C477.089 463.457 473.081 451.932 471.287 447.488C468.886 441.595 468.924 428.411 469.604 422.085C470.866 410.474 475.048 387.423 477.992 376.121C479.663 369.721 483.919 357.18 485.96 350.892C488.274 343.798 486.975 341.223 485.329 338.549C482.298 333.635 470.631 329.414 465.608 326.579C463.529 325.403 457.949 322.011 454.634 319.98C454.634 319.98 436.026 301.486 430.297 296.262C428.961 295.036 426.017 292.758 424.285 292.226C421.625 291.409 415.896 292.164 413.162 291.632C411.578 291.322 408.473 290.035 406.939 289.849C404.662 289.577 399.404 290.901 397.115 290.988C390.818 291.236 372.668 289.849 372.668 289.849C372.668 289.849 367.323 290.579 369.117 296.262C369.216 296.583 369.711 297.066 370.168 297.45C370.057 297.561 369.946 297.673 369.859 297.772C368.337 299.53 367.075 304.073 366.803 306.536C366.42 309.966 368.028 316.836 367.855 320.278C367.743 322.506 366.63 327.099 367.335 329.203C370.379 338.339 375.761 352.031 378.247 359.743C379.844 364.719 381.328 373.472 383.803 379.897C384.087 380.627 386.327 380.998 386.314 381.791C386.24 394.38 390.558 406.983 394.282 414.534C396.868 419.795 404.786 427.817 406.864 433.004C409.45 439.429 414.609 460.053 420.363 484.762L417.839 485.022L419.917 489.64L409.958 491.224L432.512 603.988H538.703L538.728 604Z" fill="#92A4B9"/>
<g opacity="0.3">
<path d="M338.916 281.914C339.015 278.658 339.263 282.669 339.955 283.498C340.648 284.315 342.987 283.721 343.778 283.436C345.807 282.694 346.674 281.505 348.876 281.27C351.944 280.948 354.852 280.119 357.846 279.401C359.961 278.893 359.64 277.754 357.536 278.262C353.837 279.153 350.051 279.19 346.401 280.119C345.597 280.329 344.682 280.713 344.051 281.27C342.529 282.582 342.987 280.886 342.653 279.673C342.22 278.089 339.56 278.299 338.421 278.745C336.442 279.525 335.402 280.639 335.328 282.879C335.316 283.461 338.879 282.978 338.916 281.914Z" fill="#010202"/>
</g>
<path opacity="0.2" d="M464.519 179.524C468.168 179.524 471.126 176.487 471.126 172.74C471.126 168.994 468.168 165.956 464.519 165.956C460.87 165.956 457.912 168.994 457.912 172.74C457.912 176.487 460.87 179.524 464.519 179.524Z" fill="#666666"/>
<path d="M446.227 164.442L430.151 200.25L463.895 215.417L479.971 179.609L446.227 164.442Z" fill="#66C2F0"/>
<path d="M462.997 180.23C467.131 180.23 470.482 176.877 470.482 172.74C470.482 168.604 467.131 165.251 462.997 165.251C458.863 165.251 455.512 168.604 455.512 172.74C455.512 176.877 458.863 180.23 462.997 180.23Z" fill="#949494"/>
<path d="M470.012 172.74C470.012 176.875 466.659 180.23 462.527 180.23C458.395 180.23 455.042 176.875 455.042 172.74C455.042 168.606 458.395 165.251 462.527 165.251C466.659 165.251 470.012 168.606 470.012 172.74Z" fill="#CCCCCC"/>
<path d="M191.241 241.433H155.362V285.789H191.241V241.433Z" fill="#FFBB2E"/>
<path d="M163.869 237.413L150.502 248.101L153.846 252.289L167.213 241.601L163.869 237.413Z" fill="#949494"/>
<path d="M192.74 275.886L179.374 286.575L182.718 290.762L196.085 280.074L192.74 275.886Z" fill="#949494"/>
<path d="M469.704 236.981L442.596 289.042L484.696 310.989L511.805 258.929L469.704 236.981Z" fill="#B1C909"/>
<path d="M482.194 237.46L459.965 241.828L461.331 248.788L483.56 244.42L482.194 237.46Z" fill="#DE4E96"/>
<path d="M492.563 300.268L470.334 304.636L471.7 311.596L493.929 307.229L492.563 300.268Z" fill="#DE4E96"/>
<path d="M503.145 243.154C495.091 243.154 488.348 248.886 486.789 256.499L484.364 253.107C483.968 252.55 483.189 252.426 482.632 252.822C482.075 253.219 481.951 253.998 482.347 254.556L486.678 260.597C486.678 260.597 486.69 260.597 486.702 260.609C486.702 260.609 486.702 260.634 486.715 260.634C486.727 260.646 486.752 260.659 486.764 260.671C486.838 260.758 486.937 260.832 487.049 260.894C487.086 260.919 487.111 260.956 487.148 260.968C487.148 260.968 487.173 260.968 487.185 260.98C487.346 261.055 487.507 261.092 487.692 261.092C487.816 261.092 487.952 261.067 488.076 261.03C488.1 261.03 488.113 261.018 488.138 261.005C488.187 260.993 488.224 260.968 488.261 260.943C488.311 260.919 488.373 260.906 488.41 260.869C488.41 260.869 488.41 260.857 488.422 260.844C488.422 260.844 488.447 260.844 488.447 260.832L494.361 256.14C494.893 255.719 494.992 254.939 494.559 254.407C494.138 253.875 493.359 253.776 492.827 254.209L489.189 257.093C490.488 250.569 496.241 245.63 503.145 245.63C510.989 245.63 517.373 252.018 517.373 259.866C517.373 267.715 510.989 274.103 503.145 274.103C502.465 274.103 501.908 274.66 501.908 275.341C501.908 276.021 502.465 276.578 503.145 276.578C512.35 276.578 519.848 269.077 519.848 259.866C519.848 250.656 512.35 243.154 503.145 243.154Z" fill="#666666"/>
<path d="M335.576 185.367H283.724V248.712H335.576V185.367Z" fill="#FFBB2E"/>
<path d="M317.871 183.882C317.871 188.016 314.518 191.371 310.386 191.371C306.253 191.371 302.901 188.016 302.901 183.882C302.901 179.747 306.253 176.392 310.386 176.392C314.518 176.392 317.871 179.747 317.871 183.882Z" fill="#949494"/>
<path d="M317.401 183.882C317.401 188.016 314.048 191.371 309.916 191.371C305.783 191.371 302.43 188.016 302.43 183.882C302.43 179.747 305.783 176.392 309.916 176.392C314.048 176.392 317.401 179.747 317.401 183.882Z" fill="#CCCCCC"/>
<path d="M363.599 317.727L353.528 325.279C353.528 325.279 352.55 335.492 364.502 337.039C376.392 338.574 399.033 322.989 410.861 324.87C414.028 325.378 417.554 333.511 420.721 333.053C423.814 332.607 425.967 321.713 425.967 321.713L389.729 298.601L363.586 317.715L363.599 317.727Z" fill="#F7B081"/>
<path d="M363.042 338.302L357.029 343.897C357.029 343.897 357.969 354.816 369.476 352.848C380.264 351.015 408.77 333.536 408.77 333.536H415.339L424.285 338.574L419.385 323.459L395.334 317.864L363.03 338.289L363.042 338.302Z" fill="#FFCAA2"/>
<path d="M366.259 351.733C366.259 351.733 364.613 354.024 364.737 355.262C364.984 357.725 367.657 361.81 371.851 363.494C380.19 366.836 407.656 360.275 407.656 360.275L428.491 345.445L420.103 334.254L407.941 331.171L366.259 351.746V351.733Z" fill="#F7B081"/>
<path d="M351.833 298.614L476.545 406.339L483.238 398.045L358.291 291.805L351.833 298.614Z" fill="#5273BF"/>
<path d="M351.833 298.614L343.086 284.476L358.291 291.805L351.833 298.614Z" fill="#DFA58A"/>
<mask id="mask1_126_260" style="mask-type:luminance" maskUnits="userSpaceOnUse" x="343" y="284" width="16" height="15">
<path d="M351.833 298.614L343.086 284.476L358.291 291.805L351.833 298.614Z" fill="white"/>
</mask>
<g mask="url(#mask1_126_260)">
<path d="M341.242 283.56L344.224 287.584L346.97 285.021L341.205 283.412" fill="#010202"/>
</g>
<path d="M482.508 404.086C480.788 406.475 478.203 407.564 476.743 406.512C475.283 405.46 475.505 402.675 477.225 400.273C478.945 397.884 481.531 396.794 482.991 397.847C484.451 398.899 484.228 401.684 482.508 404.086Z" fill="#5C85B5"/>
<path d="M481.147 403.108C480.318 404.259 479.069 404.791 478.364 404.284C477.658 403.776 477.77 402.427 478.599 401.276C479.428 400.124 480.677 399.592 481.382 400.1C482.088 400.607 481.976 401.957 481.147 403.108Z" fill="#010202"/>
<path d="M363.364 296.373C363.364 296.373 361.681 295.16 361.483 294.528C359.689 288.846 365.034 288.116 365.034 288.116C365.034 288.116 383.184 289.502 389.481 289.255C391.77 289.168 397.029 287.844 399.305 288.116C400.852 288.302 403.945 289.589 405.528 289.899C408.263 290.431 413.991 289.676 416.651 290.493C418.383 291.025 421.328 293.303 422.664 294.528C428.392 299.753 447 318.247 447 318.247L418.643 334.439C418.643 334.439 418.197 330.8 417.529 329.81C415.859 327.309 412.556 326.207 409.413 320.958C406.951 316.848 406.271 314.546 404.056 313.506C401.718 312.417 398.711 313.197 393.849 311.278C389.692 309.631 387.366 305.942 384.867 305.583C376.268 304.321 363.351 296.373 363.351 296.373H363.364Z" fill="#FFB781"/>
<path d="M362.238 296.039C362.238 296.039 368.164 287.386 380.994 299.654C386.401 304.828 389.172 316.452 389.172 316.452C389.172 316.452 393.861 337.411 397.251 343.637C398.501 345.94 402.534 349.815 405.009 350.669C409.982 352.377 425.967 349.072 425.967 349.072L422.317 350.669L399.973 357.391C399.973 357.391 391.473 347.636 391.374 347.314C391.275 347.005 385.077 323.484 385.077 323.174C385.077 322.865 362.225 296.051 362.225 296.051L362.238 296.039Z" fill="#F6A570"/>
<path d="M370.428 295.011C365.492 293.365 363.215 294.9 362.225 296.039C360.704 297.797 359.442 302.34 359.17 304.803C358.786 308.232 360.394 315.103 360.221 318.544C360.11 320.773 358.996 325.365 359.702 327.47C362.745 336.606 368.127 350.297 370.614 358.01C372.21 362.986 382.937 405.237 386.661 412.801C389.246 418.062 397.165 426.084 399.243 431.271C407.05 450.644 434.195 589.454 434.195 589.454L512.833 593.601C512.833 593.601 470.99 463.804 463.641 445.755C461.24 439.862 461.278 426.678 461.958 420.352C463.22 408.74 467.402 385.69 470.346 374.388C472.017 367.987 476.273 355.447 478.314 349.158C480.628 342.065 479.329 339.49 477.683 336.816C474.652 331.914 462.985 327.68 457.962 324.845C454.918 323.125 444.389 316.663 444.389 316.663C444.389 316.663 422.689 326.331 418.94 333.041C418.321 334.142 418.717 336.841 418.94 338.079C419.237 339.701 420.251 344.566 420.251 344.566C420.251 344.566 409.475 353.07 405.009 352.711C400.258 352.328 396.063 345.148 395.111 343.192C393.342 339.577 391.461 331.679 390.397 327.804C388.962 322.568 385.72 312.169 383.469 307.23C380.277 300.198 374.573 296.422 370.391 295.036L370.428 295.011Z" fill="#FFB781"/>
<mask id="mask2_126_260" style="mask-type:luminance" maskUnits="userSpaceOnUse" x="359" y="294" width="154" height="300">
<path d="M370.428 295.011C365.492 293.365 363.215 294.9 362.225 296.039C360.704 297.797 359.442 302.34 359.17 304.803C358.786 308.232 360.394 315.103 360.221 318.544C360.11 320.773 358.996 325.365 359.702 327.47C362.745 336.606 368.127 350.297 370.614 358.01C372.21 362.986 382.937 405.237 386.661 412.801C389.246 418.062 397.165 426.084 399.243 431.271C407.05 450.644 434.195 589.454 434.195 589.454L512.833 593.601C512.833 593.601 470.99 463.804 463.641 445.755C461.24 439.862 461.278 426.678 461.958 420.352C463.22 408.74 467.402 385.69 470.346 374.388C472.017 367.987 476.273 355.447 478.314 349.158C480.628 342.065 479.329 339.49 477.683 336.816C474.652 331.914 462.985 327.68 457.962 324.845C454.918 323.125 444.389 316.663 444.389 316.663C444.389 316.663 422.689 326.331 418.94 333.041C418.321 334.142 418.717 336.841 418.94 338.079C419.237 339.701 420.251 344.566 420.251 344.566C420.251 344.566 409.475 353.07 405.009 352.711C400.258 352.328 396.063 345.148 395.111 343.192C393.342 339.577 391.461 331.679 390.397 327.804C388.962 322.568 385.72 312.169 383.469 307.23C380.277 300.198 374.573 296.422 370.391 295.036L370.428 295.011Z" fill="white"/>
</mask>
<g mask="url(#mask2_126_260)">
<path d="M410.217 483.301L477.856 476.22L477.497 482.992L415.327 494.591L410.217 483.301Z" fill="#F6A570"/>
</g>
<path d="M360.79 320.426C360.79 320.426 370.428 313.271 372.841 310.832C373.484 310.176 374.165 308.331 374.152 307.415C374.053 303.751 374.165 295.37 366.395 296.076C363.314 296.361 361.533 298.118 360.728 299.579C359.689 301.473 359.12 304.407 359.12 306.091C359.12 309.706 360.803 320.438 360.803 320.438L360.79 320.426Z" fill="#FFDDC4"/>
<path d="M402.349 489.491L429.085 604H533.63L485.849 476.22L402.349 489.491Z" fill="#B1C909"/>
<path d="M402.349 489.491L407.347 510.709L492.864 495.037L485.849 476.22L402.349 489.491Z" fill="white"/>
</g>
<defs>
<clipPath id="clip0_126_260">
<rect width="478.78" height="499.037" fill="white" transform="translate(75.561 104.963)"/>
</clipPath>
</defs>
</svg>
